<?xml version="1.0" encoding="UTF-8"?>
<svg xmlns="http://www.w3.org/2000/svg" version="1.1" width="300" height="300" viewBox="0 0 300 300"><rect x="0" y="0" width="300" height="300" fill="#ffffff"/><g transform="scale(14.286)"><g transform="translate(0,0)"><path fill-rule="evenodd" d="M9 0L9 1L8 1L8 3L9 3L9 4L8 4L8 8L6 8L6 9L4 9L4 8L3 8L3 9L2 9L2 8L0 8L0 9L1 9L1 10L2 10L2 11L1 11L1 12L0 12L0 13L4 13L4 12L6 12L6 13L7 13L7 12L6 12L6 11L9 11L9 12L8 12L8 15L9 15L9 17L8 17L8 18L12 18L12 19L14 19L14 18L15 18L15 17L16 17L16 19L15 19L15 20L11 20L11 21L15 21L15 20L16 20L16 21L18 21L18 20L16 20L16 19L18 19L18 15L19 15L19 14L21 14L21 12L20 12L20 11L21 11L21 9L20 9L20 8L18 8L18 9L17 9L17 8L14 8L14 9L13 9L13 10L12 10L12 9L11 9L11 8L13 8L13 4L12 4L12 3L13 3L13 2L12 2L12 1L13 1L13 0L11 0L11 2L12 2L12 3L11 3L11 4L12 4L12 5L11 5L11 6L10 6L10 7L9 7L9 4L10 4L10 0ZM11 6L11 7L12 7L12 6ZM8 8L8 10L9 10L9 11L10 11L10 12L11 12L11 13L12 13L12 12L13 12L13 14L14 14L14 16L13 16L13 15L12 15L12 14L11 14L11 15L10 15L10 17L13 17L13 18L14 18L14 17L15 17L15 16L16 16L16 17L17 17L17 15L16 15L16 14L19 14L19 10L20 10L20 9L18 9L18 12L17 12L17 13L16 13L16 11L17 11L17 10L16 10L16 9L14 9L14 11L12 11L12 10L11 10L11 9L9 9L9 8ZM3 9L3 11L5 11L5 10L4 10L4 9ZM6 9L6 10L7 10L7 9ZM10 10L10 11L11 11L11 12L12 12L12 11L11 11L11 10ZM14 11L14 12L15 12L15 11ZM9 13L9 14L10 14L10 13ZM11 15L11 16L12 16L12 15ZM19 17L19 18L20 18L20 19L21 19L21 17ZM8 19L8 21L10 21L10 20L9 20L9 19ZM19 20L19 21L20 21L20 20ZM0 0L0 7L7 7L7 0ZM1 1L1 6L6 6L6 1ZM2 2L2 5L5 5L5 2ZM14 0L14 7L21 7L21 0ZM15 1L15 6L20 6L20 1ZM16 2L16 5L19 5L19 2ZM0 14L0 21L7 21L7 14ZM1 15L1 20L6 20L6 15ZM2 16L2 19L5 19L5 16Z" fill="#000000"/></g></g></svg>
